<svg xmlns="http://www.w3.org/2000/svg" xmlns:xlink="http://www.w3.org/1999/xlink" width="48" zoomAndPan="magnify" viewBox="0 0 36 34.499999" height="46" preserveAspectRatio="xMidYMid meet" version="1.0"><defs><g/><clipPath id="4eaa6d4e16"><path d="M 1 10 L 35.742188 10 L 35.742188 23 L 1 23 Z M 1 10 " clip-rule="nonzero"/></clipPath><clipPath id="c0719acef0"><path d="M 0.441406 0.171875 L 5 0.171875 L 5 12 L 0.441406 12 Z M 0.441406 0.171875 " clip-rule="nonzero"/></clipPath><clipPath id="7858f3eac3"><path d="M 3 0.171875 L 15 0.171875 L 15 12 L 3 12 Z M 3 0.171875 " clip-rule="nonzero"/></clipPath><clipPath id="0cc2e26fb5"><path d="M 10 0.171875 L 23 0.171875 L 23 12 L 10 12 Z M 10 0.171875 " clip-rule="nonzero"/></clipPath><clipPath id="aa04c927fb"><path d="M 20 0.171875 L 32 0.171875 L 32 12 L 20 12 Z M 20 0.171875 " clip-rule="nonzero"/></clipPath><clipPath id="098b86751c"><path d="M 30 7 L 34.742188 7 L 34.742188 12 L 30 12 Z M 30 7 " clip-rule="nonzero"/></clipPath><clipPath id="db988e1385"><rect x="0" width="35" y="0" height="13"/></clipPath></defs><g clip-path="url(#4eaa6d4e16)"><g transform="matrix(1, 0, 0, 1, 1, 10)"><g clip-path="url(#db988e1385)"><g clip-path="url(#c0719acef0)"><g fill="#000000" fill-opacity="1"><g transform="translate(1.74455, 10.383557)"><g><path d="M 0.402344 -9.929688 L 0.449219 -9.929688 C 0.65625 -9.929688 0.859375 -9.929688 1.054688 -9.925781 C 1.253906 -9.921875 1.453125 -9.914062 1.660156 -9.90625 C 1.976562 -9.890625 2.246094 -9.792969 2.464844 -9.621094 C 2.632812 -9.496094 2.757812 -9.335938 2.84375 -9.144531 C 2.917969 -8.976562 2.953125 -8.800781 2.953125 -8.613281 L 2.953125 -4.1875 C 2.953125 -3.859375 2.953125 -3.527344 2.949219 -3.195312 C 2.945312 -2.871094 2.941406 -2.550781 2.941406 -2.230469 C 2.941406 -1.972656 2.957031 -1.714844 2.988281 -1.453125 C 3.035156 -1.058594 3.03125 -0.660156 2.980469 -0.261719 L 2.980469 -0.242188 L 2.976562 -0.226562 C 2.945312 -0.0273438 2.886719 0.152344 2.800781 0.308594 C 2.671875 0.558594 2.488281 0.746094 2.25 0.875 C 2.039062 0.992188 1.785156 1.066406 1.484375 1.097656 C 1.382812 1.109375 1.246094 1.117188 1.070312 1.121094 C 0.867188 1.125 0.65625 1.117188 0.441406 1.089844 C 0.152344 1.050781 -0.113281 0.972656 -0.347656 0.851562 C -0.574219 0.734375 -0.753906 0.574219 -0.890625 0.375 C -1.046875 0.140625 -1.128906 -0.117188 -1.128906 -0.402344 L -1.121094 -4.390625 L -1.121094 -5.722656 L -1.128906 -8.375 C -1.128906 -8.84375 -0.988281 -9.222656 -0.707031 -9.5 C -0.445312 -9.765625 -0.09375 -9.90625 0.34375 -9.929688 Z M 0.402344 -7.675781 L 0.402344 -8.804688 L 0.460938 -7.679688 C 0.484375 -7.679688 0.515625 -7.6875 0.554688 -7.699219 C 0.675781 -7.738281 0.785156 -7.808594 0.886719 -7.90625 C 0.996094 -8.019531 1.070312 -8.144531 1.109375 -8.28125 C 1.121094 -8.324219 1.128906 -8.355469 1.128906 -8.378906 L 1.136719 -5.71875 L 1.132812 -4.386719 L 1.128906 -0.402344 C 1.128906 -0.578125 1.078125 -0.738281 0.976562 -0.886719 C 0.898438 -1.003906 0.804688 -1.089844 0.691406 -1.148438 C 0.683594 -1.152344 0.675781 -1.15625 0.675781 -1.15625 C 0.683594 -1.152344 0.699219 -1.152344 0.722656 -1.148438 C 0.824219 -1.136719 0.917969 -1.128906 1.007812 -1.132812 C 1.121094 -1.136719 1.203125 -1.140625 1.246094 -1.144531 C 1.265625 -1.148438 1.277344 -1.148438 1.28125 -1.148438 C 1.246094 -1.140625 1.207031 -1.125 1.164062 -1.101562 C 1.007812 -1.015625 0.890625 -0.894531 0.8125 -0.746094 C 0.777344 -0.683594 0.757812 -0.628906 0.75 -0.578125 L 1.863281 -0.402344 L 0.746094 -0.546875 C 0.773438 -0.765625 0.773438 -0.980469 0.75 -1.191406 C 0.707031 -1.539062 0.6875 -1.886719 0.6875 -2.230469 C 0.6875 -2.558594 0.691406 -2.890625 0.695312 -3.222656 C 0.699219 -3.546875 0.699219 -3.867188 0.699219 -4.1875 L 0.699219 -8.613281 C 0.699219 -8.480469 0.730469 -8.347656 0.785156 -8.21875 C 0.855469 -8.070312 0.953125 -7.945312 1.082031 -7.84375 C 1.230469 -7.726562 1.394531 -7.664062 1.570312 -7.652344 C 1.378906 -7.660156 1.191406 -7.667969 1.007812 -7.671875 C 0.828125 -7.675781 0.640625 -7.675781 0.449219 -7.675781 Z M 0.402344 -7.675781 "/></g></g></g></g><g clip-path="url(#7858f3eac3)"><g fill="#000000" fill-opacity="1"><g transform="translate(4.829628, 10.383557)"><g><path d="M 4.695312 1.089844 C 4.488281 1.097656 4.265625 1.105469 4.023438 1.109375 C 3.746094 1.113281 3.484375 1.0625 3.242188 0.960938 C 2.988281 0.851562 2.769531 0.6875 2.585938 0.472656 C 2.367188 0.226562 2.203125 -0.0546875 2.09375 -0.371094 C 2.039062 -0.539062 1.980469 -0.707031 1.917969 -0.871094 L 1.910156 -0.902344 C 1.859375 -1.054688 1.800781 -1.203125 1.734375 -1.347656 C 1.644531 -1.539062 1.558594 -1.738281 1.476562 -1.941406 L 0.949219 -3.253906 C 0.777344 -3.679688 0.601562 -4.105469 0.417969 -4.535156 C 0.164062 -5.140625 -0.0859375 -5.746094 -0.332031 -6.359375 C -0.582031 -6.976562 -0.820312 -7.59375 -1.046875 -8.21875 C -1.109375 -8.378906 -1.132812 -8.550781 -1.121094 -8.726562 C -1.105469 -8.9375 -1.039062 -9.132812 -0.921875 -9.3125 C -0.765625 -9.539062 -0.554688 -9.703125 -0.277344 -9.804688 C -0.0898438 -9.871094 0.117188 -9.914062 0.347656 -9.929688 C 0.507812 -9.941406 0.664062 -9.941406 0.8125 -9.9375 C 0.910156 -9.933594 0.960938 -9.929688 0.972656 -9.929688 L 1.003906 -9.929688 C 1.394531 -9.921875 1.726562 -9.867188 2.011719 -9.773438 C 2.5 -9.609375 2.875 -9.242188 3.136719 -8.667969 C 3.476562 -7.917969 3.785156 -7.15625 4.0625 -6.386719 C 4.316406 -5.679688 4.605469 -4.992188 4.929688 -4.324219 L 3.914062 -3.832031 L 4.882812 -4.414062 L 4.953125 -4.292969 C 4.929688 -4.332031 4.902344 -4.371094 4.867188 -4.402344 L 4.070312 -3.605469 L 4.761719 -4.496094 C 4.640625 -4.59375 4.5 -4.652344 4.34375 -4.671875 C 4.214844 -4.691406 4.09375 -4.679688 3.980469 -4.644531 C 3.886719 -4.617188 3.800781 -4.566406 3.71875 -4.496094 C 3.609375 -4.402344 3.527344 -4.289062 3.472656 -4.15625 L 3.539062 -4.3125 C 3.574219 -4.398438 3.617188 -4.5 3.660156 -4.613281 C 3.710938 -4.746094 3.757812 -4.863281 3.800781 -4.964844 L 3.859375 -5.109375 L 4.398438 -6.453125 C 4.578125 -6.902344 4.753906 -7.351562 4.925781 -7.804688 L 4.9375 -7.835938 L 4.953125 -7.871094 C 4.96875 -7.90625 4.988281 -7.964844 5.011719 -8.050781 C 5.066406 -8.238281 5.132812 -8.429688 5.214844 -8.625 C 5.320312 -8.875 5.449219 -9.09375 5.605469 -9.285156 C 5.738281 -9.449219 5.894531 -9.582031 6.070312 -9.679688 C 6.269531 -9.792969 6.484375 -9.855469 6.710938 -9.871094 L 6.789062 -8.746094 L 6.65625 -9.863281 C 6.84375 -9.886719 7.035156 -9.894531 7.222656 -9.890625 C 7.371094 -9.886719 7.515625 -9.878906 7.660156 -9.871094 L 7.59375 -8.746094 L 7.59375 -9.871094 C 7.625 -9.871094 7.675781 -9.875 7.746094 -9.882812 C 7.929688 -9.902344 8.101562 -9.90625 8.269531 -9.890625 C 8.449219 -9.878906 8.613281 -9.835938 8.765625 -9.765625 C 8.96875 -9.671875 9.136719 -9.542969 9.269531 -9.371094 C 9.46875 -9.117188 9.558594 -8.824219 9.535156 -8.492188 C 9.527344 -8.320312 9.484375 -8.140625 9.40625 -7.960938 L 8.367188 -8.390625 L 9.492188 -8.390625 C 9.492188 -8.054688 9.394531 -7.710938 9.203125 -7.355469 C 9.117188 -7.199219 9.054688 -7.074219 9.015625 -6.976562 L 8.800781 -6.457031 C 8.734375 -6.292969 8.664062 -6.121094 8.597656 -5.949219 C 8.46875 -5.613281 8.332031 -5.273438 8.191406 -4.929688 C 8.054688 -4.597656 7.921875 -4.261719 7.789062 -3.929688 L 7.335938 -2.796875 C 7.183594 -2.410156 7.023438 -2.027344 6.863281 -1.648438 L 5.824219 -2.089844 L 6.878906 -1.679688 L 6.664062 -1.128906 C 6.585938 -0.929688 6.507812 -0.734375 6.421875 -0.535156 L 5.386719 -0.984375 L 6.433594 -0.566406 C 6.398438 -0.476562 6.355469 -0.351562 6.304688 -0.1875 C 6.167969 0.265625 5.925781 0.601562 5.585938 0.832031 L 4.960938 -0.105469 L 5.636719 0.796875 C 5.457031 0.929688 5.253906 1.015625 5.027344 1.050781 C 4.917969 1.070312 4.808594 1.078125 4.699219 1.078125 L 4.699219 -0.046875 L 5.496094 0.75 C 5.34375 0.902344 5.164062 1.003906 4.953125 1.054688 C 4.855469 1.078125 4.753906 1.089844 4.652344 1.089844 L 4.652344 -0.0351562 Z M 4.605469 -1.160156 L 4.628906 -1.164062 L 4.652344 -1.164062 C 4.570312 -1.164062 4.488281 -1.152344 4.40625 -1.132812 C 4.214844 -1.082031 4.046875 -0.988281 3.902344 -0.84375 L 4.230469 -1.175781 L 4.699219 -1.175781 C 4.683594 -1.175781 4.667969 -1.171875 4.65625 -1.171875 C 4.523438 -1.148438 4.398438 -1.09375 4.285156 -1.007812 L 4.308594 -1.027344 L 4.335938 -1.042969 C 4.265625 -1 4.210938 -0.945312 4.171875 -0.882812 C 4.160156 -0.871094 4.152344 -0.855469 4.148438 -0.84375 L 4.148438 -0.847656 C 4.21875 -1.070312 4.28125 -1.253906 4.339844 -1.402344 L 4.347656 -1.417969 L 4.351562 -1.433594 C 4.425781 -1.601562 4.496094 -1.769531 4.5625 -1.945312 L 4.78125 -2.511719 L 4.789062 -2.53125 C 4.941406 -2.894531 5.09375 -3.261719 5.242188 -3.632812 L 5.691406 -4.757812 C 5.828125 -5.101562 5.964844 -5.445312 6.105469 -5.785156 C 6.242188 -6.113281 6.371094 -6.441406 6.496094 -6.769531 C 6.570312 -6.960938 6.644531 -7.144531 6.71875 -7.320312 L 6.929688 -7.832031 C 7 -8.003906 7.097656 -8.203125 7.21875 -8.425781 C 7.234375 -8.457031 7.246094 -8.480469 7.25 -8.492188 C 7.242188 -8.464844 7.238281 -8.429688 7.238281 -8.390625 L 7.238281 -8.613281 L 7.324219 -8.816406 C 7.304688 -8.769531 7.292969 -8.707031 7.285156 -8.632812 C 7.28125 -8.539062 7.289062 -8.445312 7.3125 -8.351562 C 7.347656 -8.214844 7.410156 -8.089844 7.496094 -7.976562 C 7.585938 -7.863281 7.699219 -7.773438 7.828125 -7.714844 C 7.914062 -7.675781 8 -7.652344 8.082031 -7.644531 C 8.058594 -7.648438 8.027344 -7.644531 7.988281 -7.640625 C 7.835938 -7.625 7.707031 -7.617188 7.59375 -7.617188 L 7.5625 -7.617188 L 7.527344 -7.621094 C 7.40625 -7.628906 7.28125 -7.632812 7.15625 -7.636719 C 7.078125 -7.636719 7 -7.636719 6.917969 -7.625 L 6.890625 -7.621094 L 6.863281 -7.621094 C 6.972656 -7.628906 7.074219 -7.65625 7.171875 -7.710938 C 7.246094 -7.753906 7.304688 -7.804688 7.351562 -7.859375 C 7.332031 -7.835938 7.3125 -7.800781 7.292969 -7.75 C 7.246094 -7.644531 7.210938 -7.542969 7.183594 -7.445312 C 7.128906 -7.246094 7.070312 -7.078125 7.007812 -6.9375 L 5.980469 -7.402344 L 7.035156 -7.003906 C 6.859375 -6.539062 6.675781 -6.074219 6.492188 -5.613281 L 5.941406 -4.242188 L 5.882812 -4.097656 C 5.847656 -4.011719 5.804688 -3.914062 5.761719 -3.800781 C 5.710938 -3.667969 5.664062 -3.550781 5.621094 -3.445312 L 5.566406 -3.320312 C 5.480469 -3.105469 5.351562 -2.925781 5.175781 -2.777344 C 5.03125 -2.652344 4.859375 -2.558594 4.667969 -2.496094 C 4.457031 -2.429688 4.242188 -2.410156 4.03125 -2.441406 C 3.789062 -2.472656 3.570312 -2.566406 3.378906 -2.71875 L 3.324219 -2.761719 L 3.273438 -2.808594 C 3.175781 -2.90625 3.089844 -3.015625 3.019531 -3.132812 L 2.921875 -3.296875 L 2.902344 -3.34375 C 2.542969 -4.082031 2.222656 -4.839844 1.941406 -5.621094 C 1.683594 -6.335938 1.398438 -7.039062 1.085938 -7.730469 C 1.074219 -7.753906 1.066406 -7.773438 1.058594 -7.789062 L 1.054688 -7.789062 C 1.058594 -7.785156 1.0625 -7.78125 1.066406 -7.777344 C 1.125 -7.714844 1.199219 -7.667969 1.296875 -7.632812 C 1.226562 -7.660156 1.105469 -7.671875 0.941406 -7.675781 L 0.972656 -8.804688 L 0.972656 -7.675781 C 0.9375 -7.675781 0.855469 -7.679688 0.730469 -7.683594 C 0.65625 -7.6875 0.578125 -7.683594 0.492188 -7.679688 C 0.476562 -7.679688 0.46875 -7.675781 0.460938 -7.675781 C 0.46875 -7.675781 0.476562 -7.679688 0.492188 -7.6875 C 0.679688 -7.753906 0.835938 -7.878906 0.957031 -8.058594 C 1.058594 -8.214844 1.117188 -8.382812 1.128906 -8.566406 C 1.140625 -8.714844 1.121094 -8.855469 1.070312 -8.988281 C 1.289062 -8.390625 1.515625 -7.796875 1.757812 -7.203125 C 2 -6.605469 2.246094 -6.003906 2.5 -5.40625 C 2.683594 -4.96875 2.863281 -4.527344 3.039062 -4.09375 L 3.554688 -2.808594 C 3.628906 -2.628906 3.707031 -2.453125 3.785156 -2.285156 C 3.882812 -2.066406 3.972656 -1.84375 4.046875 -1.613281 L 2.976562 -1.257812 L 4.039062 -1.644531 C 4.105469 -1.460938 4.167969 -1.28125 4.230469 -1.097656 C 4.238281 -1.070312 4.261719 -1.035156 4.296875 -0.996094 C 4.253906 -1.042969 4.199219 -1.082031 4.136719 -1.109375 C 4.082031 -1.132812 4.03125 -1.144531 3.984375 -1.144531 C 4.210938 -1.148438 4.417969 -1.15625 4.605469 -1.160156 Z M 4.605469 -1.160156 "/></g></g></g></g><g clip-path="url(#0cc2e26fb5)"><g fill="#000000" fill-opacity="1"><g transform="translate(11.62866, 10.383557)"><g><path d="M 9.5625 -2.363281 C 9.671875 -2.117188 9.78125 -1.875 9.894531 -1.628906 C 10.023438 -1.359375 10.140625 -1.085938 10.253906 -0.816406 L 9.207031 -0.390625 L 10.242188 -0.84375 C 10.394531 -0.496094 10.4375 -0.175781 10.375 0.117188 C 10.324219 0.351562 10.214844 0.554688 10.039062 0.722656 C 9.925781 0.835938 9.789062 0.925781 9.632812 0.988281 C 9.476562 1.054688 9.300781 1.089844 9.105469 1.101562 C 8.863281 1.109375 8.625 1.117188 8.394531 1.117188 C 8.136719 1.117188 7.878906 1.101562 7.617188 1.074219 C 7.390625 1.050781 7.171875 0.984375 6.96875 0.875 C 6.773438 0.769531 6.601562 0.628906 6.453125 0.453125 C 6.21875 0.179688 6.0625 -0.121094 5.976562 -0.449219 C 5.945312 -0.570312 5.898438 -0.695312 5.832031 -0.824219 C 5.824219 -0.839844 5.816406 -0.851562 5.804688 -0.859375 L 5.78125 -0.875 C 5.78125 -0.875 5.777344 -0.875 5.777344 -0.875 C 5.785156 -0.871094 5.792969 -0.871094 5.800781 -0.867188 C 5.835938 -0.855469 5.871094 -0.847656 5.914062 -0.84375 C 5.789062 -0.851562 5.652344 -0.855469 5.503906 -0.855469 L 5.503906 -1.980469 L 5.550781 -0.855469 C 5.339844 -0.847656 5.125 -0.84375 4.914062 -0.847656 C 4.714844 -0.851562 4.515625 -0.859375 4.308594 -0.867188 L 4.277344 -0.867188 C 4.09375 -0.882812 3.917969 -0.882812 3.746094 -0.875 C 3.691406 -0.871094 3.625 -0.851562 3.554688 -0.816406 C 3.445312 -0.761719 3.363281 -0.6875 3.300781 -0.601562 C 3.21875 -0.484375 3.160156 -0.355469 3.128906 -0.210938 L 2.027344 -0.449219 L 3.140625 -0.265625 C 3.101562 -0.03125 3.023438 0.1875 2.902344 0.390625 C 2.773438 0.605469 2.601562 0.769531 2.382812 0.890625 C 2.199219 0.992188 1.996094 1.050781 1.777344 1.066406 L 1.695312 1.066406 C 1.691406 1.066406 1.605469 1.074219 1.449219 1.082031 C 1.25 1.097656 1.03125 1.105469 0.796875 1.109375 C 0.515625 1.113281 0.265625 1.101562 0.046875 1.066406 C -0.167969 1.035156 -0.351562 0.972656 -0.507812 0.882812 C -0.703125 0.769531 -0.859375 0.617188 -0.964844 0.425781 C -1.046875 0.285156 -1.09375 0.132812 -1.109375 -0.0273438 C -1.128906 -0.179688 -1.113281 -0.328125 -1.070312 -0.476562 L -1.054688 -0.53125 L -1.035156 -0.585938 C -1.039062 -0.578125 -1.042969 -0.5625 -1.046875 -0.546875 L -1.011719 -0.6875 L -0.996094 -0.730469 C -0.867188 -1.109375 -0.710938 -1.476562 -0.527344 -1.832031 C -0.382812 -2.109375 -0.246094 -2.394531 -0.125 -2.683594 C 0.0273438 -3.03125 0.179688 -3.371094 0.324219 -3.707031 C 0.472656 -4.050781 0.621094 -4.394531 0.773438 -4.738281 C 1.070312 -5.417969 1.367188 -6.09375 1.65625 -6.769531 C 1.949219 -7.445312 2.230469 -8.117188 2.503906 -8.789062 C 2.660156 -9.160156 2.867188 -9.4375 3.121094 -9.621094 C 3.40625 -9.828125 3.75 -9.929688 4.152344 -9.929688 L 4.234375 -9.929688 C 4.347656 -9.925781 4.453125 -9.925781 4.5625 -9.929688 C 4.746094 -9.941406 4.9375 -9.941406 5.125 -9.929688 C 5.652344 -9.890625 6.0625 -9.710938 6.363281 -9.386719 C 6.542969 -9.191406 6.699219 -8.949219 6.828125 -8.664062 L 7.117188 -8.027344 L 7.398438 -7.390625 C 7.585938 -6.96875 7.769531 -6.546875 7.957031 -6.128906 C 8.148438 -5.699219 8.335938 -5.273438 8.519531 -4.851562 L 7.488281 -4.402344 L 8.425781 -5.027344 C 8.480469 -4.941406 8.578125 -4.738281 8.710938 -4.414062 L 9.105469 -3.46875 L 9.574219 -2.34375 Z M 7.492188 -1.476562 L 7.023438 -2.605469 L 6.628906 -3.546875 C 6.578125 -3.671875 6.539062 -3.765625 6.511719 -3.828125 C 6.5 -3.855469 6.492188 -3.871094 6.488281 -3.882812 C 6.5 -3.851562 6.523438 -3.816406 6.550781 -3.777344 L 6.492188 -3.859375 L 6.453125 -3.953125 C 6.273438 -4.367188 6.089844 -4.785156 5.902344 -5.203125 C 5.710938 -5.632812 5.523438 -6.054688 5.34375 -6.46875 L 5.058594 -7.101562 L 4.777344 -7.734375 C 4.746094 -7.796875 4.726562 -7.835938 4.707031 -7.855469 C 4.777344 -7.78125 4.851562 -7.730469 4.933594 -7.695312 C 4.953125 -7.6875 4.96875 -7.683594 4.984375 -7.679688 L 5.007812 -7.679688 C 4.898438 -7.683594 4.789062 -7.683594 4.683594 -7.679688 C 4.496094 -7.667969 4.308594 -7.667969 4.117188 -7.679688 L 4.175781 -8.804688 L 4.175781 -7.675781 L 4.152344 -7.675781 C 4.167969 -7.675781 4.191406 -7.679688 4.222656 -7.6875 C 4.300781 -7.710938 4.375 -7.746094 4.449219 -7.796875 C 4.507812 -7.839844 4.554688 -7.886719 4.589844 -7.9375 C 4.59375 -7.941406 4.59375 -7.945312 4.597656 -7.949219 C 4.59375 -7.941406 4.589844 -7.9375 4.59375 -7.941406 C 4.3125 -7.253906 4.023438 -6.566406 3.730469 -5.878906 C 3.433594 -5.195312 3.136719 -4.511719 2.835938 -3.828125 C 2.6875 -3.492188 2.539062 -3.15625 2.394531 -2.816406 C 2.246094 -2.472656 2.097656 -2.136719 1.949219 -1.800781 C 1.804688 -1.457031 1.648438 -1.121094 1.476562 -0.792969 C 1.34375 -0.535156 1.230469 -0.273438 1.136719 -0.00390625 L 0.0703125 -0.367188 L 1.164062 -0.09375 L 1.140625 0 C 1.121094 0.0820312 1.09375 0.164062 1.058594 0.253906 L 0.0117188 -0.167969 L 1.097656 0.144531 C 1.132812 0.0117188 1.144531 -0.125 1.132812 -0.265625 C 1.117188 -0.414062 1.070312 -0.550781 1 -0.679688 C 0.902344 -0.847656 0.773438 -0.980469 0.609375 -1.074219 C 0.546875 -1.109375 0.488281 -1.136719 0.425781 -1.152344 C 0.410156 -1.15625 0.398438 -1.160156 0.390625 -1.160156 C 0.480469 -1.148438 0.601562 -1.140625 0.757812 -1.144531 C 0.957031 -1.148438 1.140625 -1.15625 1.304688 -1.167969 C 1.507812 -1.179688 1.640625 -1.1875 1.695312 -1.1875 L 1.695312 -0.0585938 L 1.617188 -1.183594 C 1.507812 -1.175781 1.402344 -1.144531 1.296875 -1.085938 C 1.15625 -1.007812 1.046875 -0.902344 0.96875 -0.769531 C 0.941406 -0.726562 0.925781 -0.683594 0.917969 -0.636719 L 0.921875 -0.664062 L 0.925781 -0.6875 C 1.023438 -1.132812 1.199219 -1.535156 1.457031 -1.902344 C 1.738281 -2.296875 2.089844 -2.601562 2.519531 -2.816406 C 2.875 -3 3.242188 -3.105469 3.621094 -3.125 C 3.886719 -3.140625 4.15625 -3.136719 4.433594 -3.117188 L 4.355469 -1.992188 L 4.398438 -3.121094 C 4.589844 -3.113281 4.777344 -3.105469 4.960938 -3.101562 C 5.125 -3.097656 5.292969 -3.101562 5.457031 -3.109375 L 5.503906 -3.109375 C 5.691406 -3.109375 5.867188 -3.105469 6.035156 -3.09375 C 6.390625 -3.074219 6.730469 -2.957031 7.054688 -2.734375 L 6.417969 -1.804688 L 7.035156 -2.746094 C 7.386719 -2.519531 7.660156 -2.214844 7.847656 -1.832031 C 7.980469 -1.566406 8.085938 -1.289062 8.164062 -0.996094 C 8.164062 -1.007812 8.160156 -1.015625 8.15625 -1.023438 C 8.15625 -1.019531 8.160156 -1.015625 8.164062 -1.011719 C 8.132812 -1.046875 8.09375 -1.082031 8.042969 -1.109375 C 7.980469 -1.144531 7.917969 -1.164062 7.855469 -1.167969 C 8.039062 -1.148438 8.21875 -1.140625 8.394531 -1.140625 C 8.597656 -1.140625 8.792969 -1.140625 8.980469 -1.148438 C 8.925781 -1.144531 8.855469 -1.128906 8.777344 -1.097656 C 8.664062 -1.046875 8.558594 -0.980469 8.464844 -0.886719 C 8.3125 -0.738281 8.214844 -0.5625 8.171875 -0.355469 C 8.140625 -0.214844 8.140625 -0.0859375 8.167969 0.0351562 C 8.171875 0.0507812 8.175781 0.0625 8.179688 0.0742188 C 8.179688 0.0703125 8.179688 0.0664062 8.175781 0.0585938 L 8.167969 0.046875 L 8.164062 0.03125 C 8.066406 -0.203125 7.964844 -0.4375 7.855469 -0.671875 C 7.730469 -0.933594 7.613281 -1.195312 7.5 -1.457031 Z M 5.34375 -4.695312 C 5.5 -4.707031 5.632812 -4.710938 5.742188 -4.710938 C 5.507812 -4.710938 5.296875 -4.636719 5.109375 -4.492188 C 4.898438 -4.328125 4.765625 -4.121094 4.714844 -3.863281 C 4.691406 -3.75 4.6875 -3.636719 4.707031 -3.53125 C 4.710938 -3.496094 4.71875 -3.46875 4.726562 -3.449219 L 4.710938 -3.496094 L 4.695312 -3.546875 C 4.691406 -3.570312 4.683594 -3.589844 4.667969 -3.613281 C 4.59375 -3.742188 4.523438 -3.871094 4.453125 -4.003906 C 4.34375 -4.199219 4.246094 -4.410156 4.160156 -4.636719 C 4.101562 -4.792969 4.039062 -4.945312 3.96875 -5.097656 C 3.914062 -5.222656 3.863281 -5.347656 3.820312 -5.480469 C 3.804688 -5.527344 3.789062 -5.5625 3.773438 -5.59375 L 3.753906 -5.632812 L 3.738281 -5.667969 C 3.738281 -5.675781 3.734375 -5.679688 3.734375 -5.683594 C 3.734375 -5.683594 3.734375 -5.679688 3.734375 -5.679688 C 3.746094 -5.65625 3.761719 -5.632812 3.78125 -5.605469 C 3.839844 -5.523438 3.910156 -5.449219 3.992188 -5.386719 C 4.082031 -5.320312 4.179688 -5.265625 4.285156 -5.230469 C 4.441406 -5.175781 4.605469 -5.15625 4.769531 -5.175781 C 5 -5.199219 5.203125 -5.289062 5.371094 -5.441406 C 5.433594 -5.5 5.484375 -5.558594 5.527344 -5.621094 C 5.539062 -5.640625 5.550781 -5.660156 5.558594 -5.675781 C 5.558594 -5.671875 5.554688 -5.667969 5.550781 -5.65625 L 5.546875 -5.644531 L 5.539062 -5.632812 C 5.457031 -5.445312 5.378906 -5.253906 5.300781 -5.058594 C 5.214844 -4.847656 5.125 -4.636719 5.035156 -4.425781 C 4.929688 -4.179688 4.804688 -3.945312 4.660156 -3.722656 C 4.609375 -3.648438 4.574219 -3.566406 4.550781 -3.480469 C 4.605469 -3.667969 4.589844 -3.863281 4.511719 -4.0625 L 4.53125 -4.015625 L 4.542969 -3.964844 C 4.5 -4.109375 4.429688 -4.238281 4.324219 -4.351562 C 4.226562 -4.460938 4.105469 -4.546875 3.96875 -4.601562 C 3.824219 -4.660156 3.691406 -4.683594 3.558594 -4.667969 C 3.734375 -4.6875 3.875 -4.699219 3.976562 -4.699219 L 5.410156 -4.699219 L 5.410156 -3.570312 Z M 5.476562 -2.445312 L 3.976562 -2.445312 C 3.964844 -2.445312 3.917969 -2.4375 3.832031 -2.429688 C 3.570312 -2.398438 3.332031 -2.425781 3.113281 -2.515625 C 2.9375 -2.589844 2.785156 -2.695312 2.660156 -2.832031 C 2.53125 -2.972656 2.441406 -3.136719 2.386719 -3.320312 L 3.464844 -3.644531 L 2.417969 -3.222656 C 2.308594 -3.503906 2.292969 -3.789062 2.378906 -4.089844 C 2.464844 -4.398438 2.597656 -4.683594 2.769531 -4.953125 C 2.847656 -5.070312 2.910156 -5.1875 2.960938 -5.304688 C 3.046875 -5.503906 3.128906 -5.703125 3.207031 -5.902344 C 3.296875 -6.121094 3.386719 -6.332031 3.476562 -6.542969 L 4.507812 -6.085938 L 3.464844 -6.515625 C 3.523438 -6.648438 3.582031 -6.765625 3.640625 -6.859375 C 3.707031 -6.957031 3.78125 -7.042969 3.863281 -7.117188 C 4.050781 -7.289062 4.269531 -7.386719 4.519531 -7.414062 C 4.695312 -7.433594 4.867188 -7.414062 5.03125 -7.355469 C 5.148438 -7.316406 5.253906 -7.257812 5.355469 -7.183594 C 5.460938 -7.105469 5.550781 -7.007812 5.632812 -6.894531 C 5.699219 -6.792969 5.765625 -6.671875 5.824219 -6.527344 L 4.78125 -6.097656 L 5.789062 -6.601562 C 5.855469 -6.476562 5.910156 -6.339844 5.957031 -6.195312 C 5.976562 -6.136719 6 -6.082031 6.023438 -6.03125 C 6.109375 -5.835938 6.195312 -5.636719 6.269531 -5.433594 C 6.316406 -5.308594 6.375 -5.183594 6.441406 -5.0625 C 6.496094 -4.957031 6.554688 -4.855469 6.613281 -4.753906 C 6.738281 -4.546875 6.828125 -4.324219 6.882812 -4.09375 L 5.789062 -3.820312 L 6.855469 -4.191406 C 6.949219 -3.921875 6.972656 -3.664062 6.925781 -3.421875 C 6.867188 -3.125 6.71875 -2.886719 6.480469 -2.703125 C 6.265625 -2.539062 6.019531 -2.457031 5.742188 -2.457031 C 5.679688 -2.457031 5.589844 -2.453125 5.476562 -2.445312 Z M 5.476562 -2.445312 "/></g></g></g></g><g clip-path="url(#aa04c927fb)"><g fill="#000000" fill-opacity="1"><g transform="translate(22.094193, 10.383557)"><g><path d="M 5.097656 0.402344 C 4.554688 -0.28125 4.019531 -0.972656 3.488281 -1.664062 C 2.96875 -2.347656 2.441406 -3.019531 1.910156 -3.6875 C 1.910156 -3.683594 1.878906 -3.714844 1.808594 -3.777344 C 1.765625 -3.816406 1.722656 -3.847656 1.679688 -3.875 C 1.710938 -3.855469 1.753906 -3.839844 1.804688 -3.824219 C 1.917969 -3.796875 2.039062 -3.792969 2.164062 -3.816406 C 2.339844 -3.851562 2.496094 -3.925781 2.632812 -4.042969 C 2.742188 -4.136719 2.824219 -4.25 2.882812 -4.375 C 2.929688 -4.480469 2.953125 -4.570312 2.953125 -4.652344 C 2.953125 -4.039062 2.964844 -3.433594 2.988281 -2.832031 C 3.015625 -2.179688 3.011719 -1.527344 2.976562 -0.867188 C 2.96875 -0.769531 2.964844 -0.671875 2.964844 -0.574219 C 2.964844 -0.347656 2.9375 -0.128906 2.875 0.0859375 L 1.792969 -0.226562 L 2.890625 0.0273438 C 2.851562 0.191406 2.796875 0.335938 2.722656 0.464844 C 2.652344 0.582031 2.570312 0.679688 2.472656 0.769531 C 2.332031 0.894531 2.171875 0.984375 1.988281 1.035156 C 1.847656 1.074219 1.667969 1.089844 1.449219 1.089844 L 1.40625 1.089844 C 1.207031 1.082031 1.003906 1.078125 0.800781 1.078125 L 0.140625 1.078125 C -0.0429688 1.078125 -0.21875 1.039062 -0.382812 0.953125 C -0.511719 0.890625 -0.625 0.804688 -0.722656 0.695312 C -0.832031 0.578125 -0.914062 0.441406 -0.972656 0.285156 C -1.023438 0.152344 -1.058594 -0.0078125 -1.078125 -0.191406 C -1.101562 -0.410156 -1.117188 -0.671875 -1.117188 -0.980469 C -1.117188 -1.25 -1.113281 -1.527344 -1.109375 -1.808594 C -1.105469 -2.09375 -1.097656 -2.34375 -1.089844 -2.5625 C -1.082031 -2.757812 -1.078125 -2.882812 -1.078125 -2.929688 L -1.085938 -5.542969 C -1.089844 -6.421875 -1.085938 -7.296875 -1.078125 -8.175781 C -1.078125 -8.339844 -1.066406 -8.503906 -1.042969 -8.667969 C -1.003906 -8.941406 -0.890625 -9.179688 -0.710938 -9.386719 C -0.566406 -9.550781 -0.382812 -9.683594 -0.167969 -9.777344 L -0.140625 -9.789062 L -0.109375 -9.800781 C 0.152344 -9.898438 0.433594 -9.945312 0.734375 -9.9375 C 0.949219 -9.933594 1.148438 -9.910156 1.335938 -9.875 C 1.8125 -9.785156 2.234375 -9.59375 2.609375 -9.296875 C 2.929688 -9.042969 3.199219 -8.757812 3.417969 -8.4375 C 3.648438 -8.109375 3.882812 -7.78125 4.128906 -7.453125 C 4.375 -7.121094 4.621094 -6.789062 4.871094 -6.460938 C 5.109375 -6.160156 5.347656 -5.832031 5.585938 -5.484375 C 5.765625 -5.222656 5.960938 -4.992188 6.171875 -4.796875 L 6.195312 -4.773438 C 6.128906 -4.839844 6.039062 -4.886719 5.933594 -4.914062 C 5.8125 -4.945312 5.683594 -4.941406 5.550781 -4.910156 C 5.40625 -4.871094 5.285156 -4.800781 5.183594 -4.699219 C 5.132812 -4.648438 5.097656 -4.585938 5.074219 -4.511719 C 5.074219 -4.507812 5.074219 -4.507812 5.074219 -4.5 C 5.078125 -4.570312 5.078125 -4.636719 5.078125 -4.699219 L 6.207031 -4.699219 L 5.078125 -4.671875 L 5.039062 -6.464844 C 5.023438 -7.101562 5.046875 -7.738281 5.105469 -8.375 L 5.109375 -8.390625 L 5.109375 -8.40625 C 5.136719 -8.636719 5.199219 -8.84375 5.292969 -9.03125 C 5.417969 -9.277344 5.59375 -9.476562 5.820312 -9.621094 C 6.113281 -9.816406 6.449219 -9.917969 6.832031 -9.925781 C 7.066406 -9.929688 7.304688 -9.914062 7.542969 -9.875 C 7.675781 -9.855469 7.789062 -9.839844 7.886719 -9.835938 L 7.820312 -8.710938 L 7.820312 -9.835938 C 8.050781 -9.835938 8.273438 -9.785156 8.476562 -9.683594 L 8.527344 -9.65625 L 8.570312 -9.628906 C 8.777344 -9.5 8.9375 -9.328125 9.050781 -9.109375 C 9.136719 -8.9375 9.1875 -8.753906 9.203125 -8.554688 C 9.21875 -8.386719 9.214844 -8.210938 9.195312 -8.03125 C 9.183594 -7.921875 9.171875 -7.832031 9.164062 -7.761719 L 8.046875 -7.902344 L 9.171875 -7.902344 L 9.171875 -6.914062 C 9.164062 -6.605469 9.160156 -6.300781 9.160156 -5.992188 L 9.160156 -1.316406 C 9.160156 -1.167969 9.164062 -1.003906 9.175781 -0.835938 C 9.191406 -0.566406 9.183594 -0.308594 9.148438 -0.0625 L 9.148438 -0.0390625 L 9.144531 -0.0195312 C 9.101562 0.226562 9.011719 0.441406 8.875 0.617188 C 8.757812 0.773438 8.609375 0.898438 8.433594 0.984375 C 8.242188 1.078125 8.039062 1.121094 7.824219 1.109375 C 7.769531 1.105469 7.695312 1.101562 7.605469 1.101562 L 6.679688 1.101562 C 6.421875 1.101562 6.195312 1.078125 5.996094 1.023438 C 5.660156 0.933594 5.363281 0.730469 5.105469 0.414062 Z M 6.855469 -1.007812 C 6.847656 -1.015625 6.832031 -1.027344 6.8125 -1.046875 C 6.746094 -1.09375 6.671875 -1.128906 6.582031 -1.152344 L 6.582031 -1.15625 C 6.609375 -1.152344 6.640625 -1.152344 6.679688 -1.152344 L 7.605469 -1.152344 C 7.738281 -1.152344 7.847656 -1.148438 7.945312 -1.144531 C 7.765625 -1.152344 7.597656 -1.117188 7.4375 -1.039062 C 7.292969 -0.96875 7.175781 -0.871094 7.078125 -0.746094 C 6.996094 -0.632812 6.941406 -0.519531 6.921875 -0.410156 L 8.03125 -0.214844 L 6.917969 -0.367188 C 6.929688 -0.464844 6.933594 -0.578125 6.925781 -0.695312 C 6.914062 -0.914062 6.90625 -1.121094 6.90625 -1.316406 L 6.90625 -5.992188 C 6.90625 -6.316406 6.910156 -6.644531 6.917969 -6.96875 L 8.046875 -6.941406 L 6.917969 -6.941406 L 6.917969 -7.972656 L 6.925781 -8.042969 C 6.933594 -8.101562 6.941406 -8.179688 6.953125 -8.28125 C 6.957031 -8.316406 6.960938 -8.347656 6.957031 -8.375 C 6.964844 -8.277344 6.996094 -8.175781 7.046875 -8.078125 C 7.121094 -7.925781 7.234375 -7.808594 7.375 -7.71875 L 7.972656 -8.675781 L 7.46875 -7.664062 C 7.582031 -7.609375 7.699219 -7.582031 7.820312 -7.582031 L 7.785156 -7.582031 L 7.753906 -7.585938 C 7.582031 -7.59375 7.390625 -7.617188 7.179688 -7.648438 C 7.082031 -7.667969 6.980469 -7.671875 6.886719 -7.671875 C 6.933594 -7.671875 6.988281 -7.695312 7.054688 -7.738281 C 7.164062 -7.808594 7.25 -7.902344 7.304688 -8.011719 C 7.328125 -8.0625 7.34375 -8.101562 7.347656 -8.136719 L 6.230469 -8.269531 L 7.351562 -8.164062 C 7.300781 -7.613281 7.28125 -7.066406 7.292969 -6.515625 L 7.332031 -4.710938 L 7.332031 -4.699219 C 7.332031 -4.601562 7.332031 -4.503906 7.324219 -4.398438 C 7.316406 -4.21875 7.289062 -4.050781 7.242188 -3.890625 C 7.15625 -3.59375 7.003906 -3.332031 6.777344 -3.105469 C 6.589844 -2.917969 6.371094 -2.792969 6.117188 -2.726562 C 5.878906 -2.664062 5.636719 -2.664062 5.386719 -2.726562 C 5.089844 -2.800781 4.828125 -2.953125 4.601562 -3.179688 L 5.398438 -3.976562 L 4.625 -3.152344 C 4.296875 -3.460938 4 -3.8125 3.726562 -4.210938 C 3.515625 -4.519531 3.300781 -4.8125 3.078125 -5.09375 C 2.820312 -5.433594 2.566406 -5.769531 2.316406 -6.109375 C 2.058594 -6.453125 1.808594 -6.804688 1.5625 -7.15625 C 1.46875 -7.292969 1.351562 -7.417969 1.210938 -7.53125 C 1.125 -7.597656 1.027344 -7.640625 0.917969 -7.660156 C 0.851562 -7.671875 0.769531 -7.679688 0.675781 -7.683594 C 0.667969 -7.683594 0.660156 -7.683594 0.65625 -7.683594 C 0.664062 -7.683594 0.671875 -7.6875 0.679688 -7.691406 L 0.285156 -8.746094 L 0.738281 -7.710938 C 0.828125 -7.75 0.910156 -7.8125 0.984375 -7.898438 C 1.09375 -8.023438 1.160156 -8.171875 1.1875 -8.335938 C 1.179688 -8.285156 1.175781 -8.222656 1.175781 -8.152344 C 1.167969 -7.289062 1.164062 -6.421875 1.167969 -5.550781 L 1.175781 -2.929688 C 1.175781 -2.851562 1.171875 -2.703125 1.160156 -2.480469 C 1.15625 -2.277344 1.148438 -2.042969 1.144531 -1.777344 C 1.140625 -1.503906 1.140625 -1.238281 1.140625 -0.980469 C 1.140625 -0.753906 1.148438 -0.574219 1.160156 -0.4375 C 1.164062 -0.429688 1.164062 -0.421875 1.164062 -0.417969 C 1.160156 -0.445312 1.148438 -0.476562 1.136719 -0.511719 C 1.09375 -0.625 1.027344 -0.726562 0.941406 -0.824219 C 0.855469 -0.921875 0.75 -0.996094 0.632812 -1.058594 C 0.480469 -1.136719 0.316406 -1.175781 0.140625 -1.175781 L 0.800781 -1.175781 C 1.03125 -1.175781 1.261719 -1.171875 1.488281 -1.160156 L 1.449219 -0.0351562 L 1.449219 -1.164062 C 1.480469 -1.164062 1.503906 -1.164062 1.515625 -1.164062 C 1.484375 -1.160156 1.441406 -1.152344 1.394531 -1.140625 C 1.234375 -1.097656 1.089844 -1.019531 0.96875 -0.910156 C 0.890625 -0.839844 0.828125 -0.761719 0.777344 -0.675781 C 0.734375 -0.605469 0.707031 -0.539062 0.691406 -0.480469 L 0.707031 -0.535156 C 0.710938 -0.542969 0.710938 -0.558594 0.710938 -0.574219 C 0.710938 -0.726562 0.714844 -0.859375 0.726562 -0.984375 C 0.753906 -1.574219 0.757812 -2.160156 0.738281 -2.746094 C 0.710938 -3.375 0.699219 -4.011719 0.699219 -4.652344 C 0.699219 -4.898438 0.746094 -5.117188 0.832031 -5.3125 C 0.914062 -5.484375 1.023438 -5.632812 1.164062 -5.753906 C 1.332031 -5.898438 1.523438 -5.988281 1.742188 -6.03125 C 2.101562 -6.101562 2.460938 -6.03125 2.820312 -5.820312 C 3.003906 -5.710938 3.175781 -5.582031 3.339844 -5.433594 C 3.476562 -5.304688 3.589844 -5.191406 3.667969 -5.09375 C 4.210938 -4.414062 4.75 -3.730469 5.28125 -3.035156 C 5.800781 -2.351562 6.332031 -1.671875 6.863281 -0.996094 Z M 6.855469 -1.007812 "/></g></g></g></g><g clip-path="url(#098b86751c)"><g fill="#000000" fill-opacity="1"><g transform="translate(31.373158, 10.383557)"><g><path d="M -0.464844 -2.613281 C -0.191406 -2.882812 0.132812 -3.074219 0.515625 -3.183594 C 0.933594 -3.304688 1.347656 -3.292969 1.757812 -3.15625 L 1.398438 -2.089844 L 1.71875 -3.167969 C 2.265625 -3.007812 2.691406 -2.683594 2.988281 -2.191406 C 3.136719 -1.945312 3.234375 -1.6875 3.277344 -1.410156 C 3.320312 -1.136719 3.3125 -0.859375 3.246094 -0.578125 L 2.148438 -0.832031 L 3.257812 -0.628906 C 3.1875 -0.253906 3.023438 0.0859375 2.761719 0.386719 C 2.507812 0.679688 2.203125 0.894531 1.84375 1.023438 C 1.304688 1.210938 0.78125 1.195312 0.277344 0.976562 C -0.175781 0.777344 -0.535156 0.472656 -0.796875 0.0507812 C -1.089844 -0.417969 -1.183594 -0.925781 -1.085938 -1.472656 L -1.078125 -1.503906 C -0.980469 -1.964844 -0.761719 -2.347656 -0.421875 -2.652344 L 0.332031 -1.816406 Z M 1.128906 -1.019531 L 1.109375 -0.996094 L 1.085938 -0.976562 C 1.109375 -1 1.121094 -1.015625 1.125 -1.035156 L 0.0234375 -1.269531 L 1.132812 -1.066406 C 1.132812 -1.074219 1.132812 -1.085938 1.128906 -1.101562 C 1.125 -1.121094 1.121094 -1.132812 1.117188 -1.144531 C 1.128906 -1.121094 1.148438 -1.101562 1.171875 -1.09375 C 1.160156 -1.097656 1.144531 -1.101562 1.121094 -1.101562 C 1.105469 -1.101562 1.089844 -1.101562 1.074219 -1.09375 C 1.070312 -1.09375 1.0625 -1.089844 1.058594 -1.085938 C 1.058594 -1.089844 1.058594 -1.089844 1.058594 -1.089844 C 1.058594 -1.085938 1.054688 -1.082031 1.054688 -1.078125 C 1.046875 -1.066406 1.042969 -1.050781 1.039062 -1.03125 L 1.042969 -1.058594 L 1.046875 -1.082031 L 1.050781 -1.082031 C 1.050781 -1.074219 1.050781 -1.0625 1.050781 -1.054688 C 1.054688 -1.039062 1.054688 -1.027344 1.058594 -1.023438 C 1.058594 -1.027344 1.054688 -1.027344 1.054688 -1.027344 C 1.058594 -1.023438 1.0625 -1.019531 1.070312 -1.015625 C 1.074219 -1.011719 1.078125 -1.007812 1.085938 -1.007812 L 1.082031 -1.007812 L 1.0625 -1.011719 L 1.042969 -1.019531 C 1.074219 -1.007812 1.105469 -1.007812 1.132812 -1.015625 C 1.125 -1.015625 1.121094 -1.011719 1.121094 -1.011719 C 1.125 -1.011719 1.125 -1.015625 1.128906 -1.019531 Z M 1.128906 -1.019531 "/></g></g></g></g><g fill="#ffffff" fill-opacity="1"><g transform="translate(1.74455, 10.383557)"><g><path d="M 0.40625 -8.796875 C 0.414062 -8.796875 0.421875 -8.796875 0.421875 -8.796875 C 0.429688 -8.796875 0.441406 -8.796875 0.453125 -8.796875 C 0.648438 -8.796875 0.84375 -8.789062 1.03125 -8.78125 C 1.21875 -8.78125 1.410156 -8.78125 1.609375 -8.78125 C 1.753906 -8.769531 1.828125 -8.710938 1.828125 -8.609375 C 1.828125 -8.503906 1.828125 -8.398438 1.828125 -8.296875 C 1.828125 -7.609375 1.828125 -6.921875 1.828125 -6.234375 C 1.828125 -5.546875 1.828125 -4.863281 1.828125 -4.1875 C 1.828125 -3.863281 1.820312 -3.535156 1.8125 -3.203125 C 1.8125 -2.878906 1.8125 -2.554688 1.8125 -2.234375 C 1.8125 -1.929688 1.828125 -1.625 1.859375 -1.3125 C 1.898438 -1.007812 1.898438 -0.707031 1.859375 -0.40625 C 1.835938 -0.25 1.785156 -0.148438 1.703125 -0.109375 C 1.628906 -0.0664062 1.515625 -0.0390625 1.359375 -0.03125 C 1.285156 -0.0195312 1.175781 -0.0078125 1.03125 0 C 0.882812 0 0.734375 -0.0078125 0.578125 -0.03125 C 0.421875 -0.0507812 0.285156 -0.0859375 0.171875 -0.140625 C 0.0546875 -0.203125 0 -0.289062 0 -0.40625 C 0 -1.726562 0 -3.050781 0 -4.375 C 0.0078125 -5.707031 0.0078125 -7.039062 0 -8.375 C 0 -8.53125 0.0234375 -8.632812 0.078125 -8.6875 C 0.140625 -8.75 0.25 -8.785156 0.40625 -8.796875 Z M 0.40625 -8.796875 "/></g></g></g><g fill="#ffffff" fill-opacity="1"><g transform="translate(4.829628, 10.383557)"><g><path d="M 4.65625 -0.03125 C 4.457031 -0.03125 4.238281 -0.0234375 4 -0.015625 C 3.769531 -0.015625 3.582031 -0.0976562 3.4375 -0.265625 C 3.3125 -0.398438 3.21875 -0.554688 3.15625 -0.734375 C 3.101562 -0.910156 3.046875 -1.082031 2.984375 -1.25 C 2.910156 -1.445312 2.832031 -1.632812 2.75 -1.8125 C 2.664062 -2 2.585938 -2.1875 2.515625 -2.375 C 2.335938 -2.8125 2.160156 -3.242188 1.984375 -3.671875 C 1.816406 -4.097656 1.640625 -4.53125 1.453125 -4.96875 C 1.203125 -5.570312 0.953125 -6.175781 0.703125 -6.78125 C 0.460938 -7.382812 0.234375 -7.988281 0.015625 -8.59375 C -0.0117188 -8.65625 0.0078125 -8.703125 0.09375 -8.734375 C 0.1875 -8.765625 0.296875 -8.785156 0.421875 -8.796875 C 0.546875 -8.804688 0.660156 -8.804688 0.765625 -8.796875 C 0.878906 -8.796875 0.945312 -8.796875 0.96875 -8.796875 C 1.25 -8.785156 1.476562 -8.75 1.65625 -8.6875 C 1.832031 -8.632812 1.984375 -8.46875 2.109375 -8.1875 C 2.429688 -7.46875 2.726562 -6.738281 3 -6 C 3.269531 -5.257812 3.570312 -4.535156 3.90625 -3.828125 C 3.9375 -3.785156 3.960938 -3.742188 3.984375 -3.703125 C 4.003906 -3.671875 4.03125 -3.640625 4.0625 -3.609375 C 4.132812 -3.546875 4.21875 -3.53125 4.3125 -3.5625 C 4.414062 -3.59375 4.484375 -3.648438 4.515625 -3.734375 C 4.515625 -3.734375 4.535156 -3.78125 4.578125 -3.875 C 4.617188 -3.96875 4.660156 -4.078125 4.703125 -4.203125 C 4.753906 -4.328125 4.796875 -4.4375 4.828125 -4.53125 C 4.867188 -4.625 4.890625 -4.671875 4.890625 -4.671875 C 5.078125 -5.117188 5.257812 -5.570312 5.4375 -6.03125 C 5.625 -6.488281 5.804688 -6.945312 5.984375 -7.40625 C 6.015625 -7.488281 6.050781 -7.597656 6.09375 -7.734375 C 6.132812 -7.878906 6.1875 -8.023438 6.25 -8.171875 C 6.3125 -8.328125 6.382812 -8.457031 6.46875 -8.5625 C 6.5625 -8.675781 6.664062 -8.734375 6.78125 -8.734375 C 6.914062 -8.753906 7.050781 -8.757812 7.1875 -8.75 C 7.320312 -8.75 7.457031 -8.742188 7.59375 -8.734375 C 7.664062 -8.734375 7.753906 -8.738281 7.859375 -8.75 C 7.972656 -8.769531 8.078125 -8.773438 8.171875 -8.765625 C 8.265625 -8.753906 8.332031 -8.722656 8.375 -8.671875 C 8.414062 -8.617188 8.410156 -8.523438 8.359375 -8.390625 C 8.359375 -8.242188 8.304688 -8.078125 8.203125 -7.890625 C 8.097656 -7.703125 8.019531 -7.539062 7.96875 -7.40625 C 7.894531 -7.226562 7.820312 -7.050781 7.75 -6.875 C 7.6875 -6.707031 7.617188 -6.535156 7.546875 -6.359375 C 7.421875 -6.023438 7.285156 -5.6875 7.140625 -5.34375 C 7.003906 -5.007812 6.867188 -4.675781 6.734375 -4.34375 C 6.585938 -3.96875 6.4375 -3.585938 6.28125 -3.203125 C 6.132812 -2.828125 5.984375 -2.457031 5.828125 -2.09375 C 5.753906 -1.90625 5.679688 -1.71875 5.609375 -1.53125 C 5.535156 -1.34375 5.460938 -1.160156 5.390625 -0.984375 C 5.335938 -0.867188 5.28125 -0.710938 5.21875 -0.515625 C 5.164062 -0.316406 5.078125 -0.179688 4.953125 -0.109375 C 4.921875 -0.0859375 4.878906 -0.0703125 4.828125 -0.0625 C 4.785156 -0.0507812 4.742188 -0.046875 4.703125 -0.046875 C 4.691406 -0.0351562 4.675781 -0.03125 4.65625 -0.03125 Z M 4.65625 -0.03125 "/></g></g></g><g fill="#ffffff" fill-opacity="1"><g transform="translate(11.62866, 10.383557)"><g><path d="M 8.53125 -1.90625 C 8.632812 -1.65625 8.742188 -1.398438 8.859375 -1.140625 C 8.984375 -0.890625 9.097656 -0.640625 9.203125 -0.390625 C 9.253906 -0.265625 9.273438 -0.171875 9.265625 -0.109375 C 9.253906 -0.0546875 9.175781 -0.03125 9.03125 -0.03125 C 8.820312 -0.0195312 8.609375 -0.015625 8.390625 -0.015625 C 8.171875 -0.015625 7.953125 -0.0234375 7.734375 -0.046875 C 7.566406 -0.0664062 7.421875 -0.144531 7.296875 -0.28125 C 7.179688 -0.414062 7.101562 -0.5625 7.0625 -0.71875 C 7.007812 -0.925781 6.929688 -1.128906 6.828125 -1.328125 C 6.734375 -1.523438 6.597656 -1.679688 6.421875 -1.796875 C 6.265625 -1.898438 6.113281 -1.957031 5.96875 -1.96875 C 5.820312 -1.976562 5.664062 -1.984375 5.5 -1.984375 C 5.3125 -1.972656 5.125 -1.96875 4.9375 -1.96875 C 4.75 -1.976562 4.554688 -1.988281 4.359375 -2 C 4.128906 -2.007812 3.90625 -2.007812 3.6875 -2 C 3.46875 -1.988281 3.25 -1.925781 3.03125 -1.8125 C 2.757812 -1.675781 2.539062 -1.488281 2.375 -1.25 C 2.207031 -1.007812 2.09375 -0.742188 2.03125 -0.453125 C 2.007812 -0.359375 1.972656 -0.269531 1.921875 -0.1875 C 1.878906 -0.113281 1.804688 -0.0703125 1.703125 -0.0625 C 1.671875 -0.0625 1.5625 -0.0546875 1.375 -0.046875 C 1.195312 -0.0351562 1 -0.0234375 0.78125 -0.015625 C 0.5625 -0.015625 0.375 -0.0234375 0.21875 -0.046875 C 0.0625 -0.0664062 -0.00390625 -0.109375 0.015625 -0.171875 C 0.0234375 -0.203125 0.0351562 -0.234375 0.046875 -0.265625 C 0.0546875 -0.296875 0.0664062 -0.332031 0.078125 -0.375 C 0.179688 -0.695312 0.3125 -1.007812 0.46875 -1.3125 C 0.632812 -1.613281 0.78125 -1.921875 0.90625 -2.234375 C 1.0625 -2.578125 1.210938 -2.914062 1.359375 -3.25 C 1.503906 -3.59375 1.648438 -3.9375 1.796875 -4.28125 C 2.097656 -4.957031 2.394531 -5.632812 2.6875 -6.3125 C 2.976562 -7 3.265625 -7.679688 3.546875 -8.359375 C 3.617188 -8.523438 3.695312 -8.640625 3.78125 -8.703125 C 3.863281 -8.765625 3.988281 -8.796875 4.15625 -8.796875 L 4.171875 -8.796875 C 4.328125 -8.785156 4.476562 -8.785156 4.625 -8.796875 C 4.769531 -8.804688 4.914062 -8.804688 5.0625 -8.796875 C 5.28125 -8.785156 5.4375 -8.722656 5.53125 -8.609375 C 5.632812 -8.503906 5.722656 -8.363281 5.796875 -8.1875 C 5.890625 -7.976562 5.984375 -7.769531 6.078125 -7.5625 C 6.171875 -7.351562 6.269531 -7.140625 6.375 -6.921875 C 6.550781 -6.503906 6.734375 -6.082031 6.921875 -5.65625 C 7.109375 -5.238281 7.296875 -4.820312 7.484375 -4.40625 C 7.492188 -4.375 7.550781 -4.226562 7.65625 -3.96875 C 7.769531 -3.71875 7.90625 -3.40625 8.0625 -3.03125 C 8.21875 -2.664062 8.375 -2.289062 8.53125 -1.90625 Z M 5.40625 -3.5625 C 5.539062 -3.570312 5.648438 -3.578125 5.734375 -3.578125 C 5.828125 -3.578125 5.84375 -3.65625 5.78125 -3.8125 C 5.75 -3.945312 5.695312 -4.070312 5.625 -4.1875 C 5.5625 -4.300781 5.5 -4.414062 5.4375 -4.53125 C 5.351562 -4.6875 5.273438 -4.851562 5.203125 -5.03125 C 5.140625 -5.207031 5.070312 -5.382812 5 -5.5625 C 4.957031 -5.644531 4.921875 -5.734375 4.890625 -5.828125 C 4.859375 -5.929688 4.820312 -6.019531 4.78125 -6.09375 C 4.726562 -6.226562 4.679688 -6.289062 4.640625 -6.28125 C 4.609375 -6.28125 4.5625 -6.210938 4.5 -6.078125 C 4.414062 -5.878906 4.332031 -5.675781 4.25 -5.46875 C 4.164062 -5.269531 4.082031 -5.066406 4 -4.859375 C 3.914062 -4.679688 3.816406 -4.503906 3.703125 -4.328125 C 3.597656 -4.160156 3.519531 -3.976562 3.46875 -3.78125 C 3.445312 -3.726562 3.445312 -3.679688 3.46875 -3.640625 C 3.488281 -3.554688 3.5625 -3.519531 3.6875 -3.53125 C 3.820312 -3.550781 3.914062 -3.5625 3.96875 -3.5625 C 4.207031 -3.5625 4.445312 -3.5625 4.6875 -3.5625 C 4.925781 -3.5625 5.164062 -3.5625 5.40625 -3.5625 Z M 5.40625 -3.5625 "/></g></g></g><g fill="#ffffff" fill-opacity="1"><g transform="translate(22.094193, 10.383557)"><g><path d="M 5.984375 -0.296875 C 5.441406 -0.972656 4.90625 -1.65625 4.375 -2.34375 C 3.851562 -3.03125 3.320312 -3.710938 2.78125 -4.390625 C 2.75 -4.429688 2.679688 -4.5 2.578125 -4.59375 C 2.472656 -4.695312 2.363281 -4.78125 2.25 -4.84375 C 2.132812 -4.914062 2.035156 -4.941406 1.953125 -4.921875 C 1.867188 -4.898438 1.828125 -4.8125 1.828125 -4.65625 C 1.828125 -4.03125 1.835938 -3.40625 1.859375 -2.78125 C 1.878906 -2.164062 1.875 -1.546875 1.84375 -0.921875 C 1.84375 -0.816406 1.84375 -0.703125 1.84375 -0.578125 C 1.84375 -0.453125 1.828125 -0.332031 1.796875 -0.21875 C 1.765625 -0.125 1.726562 -0.0664062 1.6875 -0.046875 C 1.644531 -0.0351562 1.566406 -0.03125 1.453125 -0.03125 C 1.234375 -0.0390625 1.015625 -0.046875 0.796875 -0.046875 C 0.578125 -0.046875 0.359375 -0.046875 0.140625 -0.046875 C 0.0976562 -0.046875 0.0664062 -0.132812 0.046875 -0.3125 C 0.0234375 -0.488281 0.015625 -0.707031 0.015625 -0.96875 C 0.015625 -1.238281 0.015625 -1.507812 0.015625 -1.78125 C 0.0234375 -2.0625 0.03125 -2.304688 0.03125 -2.515625 C 0.0390625 -2.722656 0.046875 -2.859375 0.046875 -2.921875 C 0.046875 -3.796875 0.0390625 -4.671875 0.03125 -5.546875 C 0.03125 -6.421875 0.0351562 -7.289062 0.046875 -8.15625 C 0.046875 -8.28125 0.0507812 -8.394531 0.0625 -8.5 C 0.0820312 -8.601562 0.15625 -8.679688 0.28125 -8.734375 C 0.40625 -8.785156 0.546875 -8.804688 0.703125 -8.796875 C 0.859375 -8.796875 1 -8.785156 1.125 -8.765625 C 1.414062 -8.710938 1.675781 -8.59375 1.90625 -8.40625 C 2.132812 -8.226562 2.328125 -8.023438 2.484375 -7.796875 C 2.722656 -7.453125 2.96875 -7.113281 3.21875 -6.78125 C 3.46875 -6.445312 3.71875 -6.113281 3.96875 -5.78125 C 4.195312 -5.488281 4.425781 -5.175781 4.65625 -4.84375 C 4.882812 -4.519531 5.128906 -4.226562 5.390625 -3.96875 C 5.472656 -3.894531 5.5625 -3.84375 5.65625 -3.8125 C 5.78125 -3.78125 5.882812 -3.804688 5.96875 -3.890625 C 6.0625 -3.984375 6.125 -4.085938 6.15625 -4.203125 C 6.175781 -4.273438 6.1875 -4.351562 6.1875 -4.4375 C 6.195312 -4.53125 6.203125 -4.617188 6.203125 -4.703125 C 6.179688 -5.296875 6.164062 -5.890625 6.15625 -6.484375 C 6.144531 -7.078125 6.164062 -7.671875 6.21875 -8.265625 C 6.25 -8.460938 6.320312 -8.597656 6.4375 -8.671875 C 6.550781 -8.742188 6.691406 -8.78125 6.859375 -8.78125 C 7.023438 -8.789062 7.191406 -8.78125 7.359375 -8.75 C 7.523438 -8.726562 7.675781 -8.710938 7.8125 -8.703125 C 7.863281 -8.703125 7.914062 -8.691406 7.96875 -8.671875 C 8.03125 -8.628906 8.066406 -8.554688 8.078125 -8.453125 C 8.085938 -8.359375 8.082031 -8.257812 8.0625 -8.15625 C 8.050781 -8.050781 8.046875 -7.960938 8.046875 -7.890625 C 8.046875 -7.734375 8.046875 -7.570312 8.046875 -7.40625 C 8.046875 -7.25 8.046875 -7.09375 8.046875 -6.9375 C 8.035156 -6.625 8.03125 -6.304688 8.03125 -5.984375 C 8.03125 -5.671875 8.03125 -5.351562 8.03125 -5.03125 C 8.03125 -4.414062 8.03125 -3.796875 8.03125 -3.171875 C 8.03125 -2.546875 8.03125 -1.925781 8.03125 -1.3125 C 8.03125 -1.144531 8.035156 -0.960938 8.046875 -0.765625 C 8.054688 -0.566406 8.050781 -0.382812 8.03125 -0.21875 C 8.007812 -0.0820312 7.957031 -0.015625 7.875 -0.015625 C 7.800781 -0.0234375 7.710938 -0.03125 7.609375 -0.03125 C 7.453125 -0.03125 7.296875 -0.03125 7.140625 -0.03125 C 6.984375 -0.03125 6.828125 -0.03125 6.671875 -0.03125 C 6.515625 -0.03125 6.382812 -0.0390625 6.28125 -0.0625 C 6.175781 -0.09375 6.078125 -0.171875 5.984375 -0.296875 Z M 5.984375 -0.296875 "/></g></g></g><g fill="#ffffff" fill-opacity="1"><g transform="translate(31.373158, 10.383557)"><g><path d="M 0.328125 -1.8125 C 0.460938 -1.945312 0.625 -2.039062 0.8125 -2.09375 C 1.007812 -2.15625 1.207031 -2.15625 1.40625 -2.09375 C 1.664062 -2.007812 1.867188 -1.847656 2.015625 -1.609375 C 2.160156 -1.367188 2.203125 -1.109375 2.140625 -0.828125 C 2.109375 -0.648438 2.03125 -0.488281 1.90625 -0.34375 C 1.78125 -0.195312 1.628906 -0.09375 1.453125 -0.03125 C 1.203125 0.0507812 0.957031 0.0390625 0.71875 -0.0625 C 0.488281 -0.164062 0.300781 -0.328125 0.15625 -0.546875 C 0.0195312 -0.765625 -0.0195312 -1.003906 0.03125 -1.265625 C 0.0703125 -1.484375 0.171875 -1.664062 0.328125 -1.8125 Z M 0.328125 -1.8125 "/></g></g></g></g></g></g></svg>